<svg width="100" height="100" xmlns="http://www.w3.org/2000/svg">
  <defs>
    <pattern id="travel-pattern" patternUnits="userSpaceOnUse" width="100" height="100">
      <!-- Airplane icon -->
      <path d="M30,20 l10,5 l40,-10 l-5,5 l5,15 l-40,-5 l-10,5 l5,-10 z" fill="rgba(255,255,255,0.1)" />
      
      <!-- Map pin -->
      <path d="M70,60 a8,8 0 1 0 0.1,0 l-8,16 z" fill="rgba(255,255,255,0.1)" />
      
      <!-- Compass -->
      <circle cx="20" cy="70" r="8" fill="rgba(255,255,255,0.05)" />
      <path d="M20,62 l2,5 l-4,0 z" fill="rgba(255,255,255,0.1)" />
      <path d="M20,78 l-2,-5 l4,0 z" fill="rgba(255,255,255,0.1)" />
      <path d="M12,70 l5,2 l0,-4 z" fill="rgba(255,255,255,0.1)" />
      <path d="M28,70 l-5,-2 l0,4 z" fill="rgba(255,255,255,0.1)" />
    </pattern>
  </defs>
  <rect width="100" height="100" fill="url(#travel-pattern)" />
</svg> 